<?xml version="1.0" standalone="no"?>
<!DOCTYPE svg PUBLIC "-//W3C//DTD SVG 20010904//EN"
 "http://www.w3.org/TR/2001/REC-SVG-20010904/DTD/svg10.dtd">
<svg version="1.0" xmlns="http://www.w3.org/2000/svg"
 width="1080.000000pt" height="1010.000000pt" viewBox="0 0 1080.000000 1010.000000"
 preserveAspectRatio="xMidYMid meet">
<g transform="translate(0.000000,1010.000000) scale(0.100000,-0.100000)"
fill="#000000" stroke="none">
<path d="M0 5050 l0 -5050 5400 0 5400 0 0 5050 0 5050 -5400 0 -5400 0 0
-5050z m5685 -2050 c3 -5 26 -10 50 -10 212 0 763 -209 1016 -386 25 -17 59
-39 76 -47 34 -18 352 -243 368 -261 6 -6 37 -34 70 -61 180 -149 282 -243
456 -420 203 -207 255 -263 356 -380 52 -60 117 -136 145 -167 43 -49 67 -79
100 -123 17 -22 74 -94 101 -126 130 -158 537 -717 537 -738 0 -8 -29 -11
-102 -9 l-103 3 -50 77 c-27 42 -56 79 -63 82 -15 7 -162 -63 -169 -81 -3 -7
4 -24 16 -39 27 -34 20 -44 -34 -44 -39 0 -49 5 -85 42 -22 23 -42 50 -46 60
-3 10 -9 18 -13 18 -4 0 -23 21 -41 48 -19 26 -61 79 -95 117 -33 39 -80 95
-104 125 -114 142 -453 492 -616 637 -184 163 -492 392 -630 469 -11 6 -58 33
-105 60 -47 27 -101 57 -120 66 -99 48 -209 98 -214 98 -3 0 -25 8 -49 19 -71
31 -289 100 -337 107 -25 3 -54 10 -65 14 -59 27 -292 54 -550 65 -194 8 -295
-4 -475 -56 -287 -83 -657 -267 -918 -458 -339 -247 -512 -395 -826 -706 -157
-155 -256 -259 -362 -380 -95 -109 -215 -248 -257 -299 l-39 -46 -70 0 c-79 0
-89 4 -175 71 -35 27 -68 49 -75 49 -7 0 -26 -20 -42 -45 -15 -25 -38 -52 -49
-60 -25 -17 -127 -21 -127 -4 0 6 26 47 57 92 31 45 88 127 125 182 38 55 85
125 107 155 21 30 55 80 77 111 159 228 362 487 575 734 154 178 464 495 569
580 25 20 50 42 55 48 6 7 57 51 115 97 57 47 114 93 127 104 12 10 31 24 42
30 10 6 50 33 88 60 207 149 506 308 728 389 178 65 351 110 490 127 49 6 91
13 94 16 9 9 460 4 466 -6z"/>
<path d="M5256 2873 c-18 -5 -19 -13 -11 -167 4 -88 9 -188 10 -221 1 -33 5
-79 9 -102 l7 -41 162 -4 c89 -2 167 0 173 4 6 5 14 39 17 76 3 37 12 128 21
202 29 245 28 228 6 240 -20 11 -360 22 -394 13z"/>
<path d="M5105 2854 c-72 -12 -294 -64 -304 -71 -5 -3 35 -142 59 -203 9 -25
32 -92 50 -150 42 -134 46 -138 107 -122 26 7 82 16 124 19 43 3 83 9 90 14
10 6 10 34 1 136 -6 70 -14 188 -18 261 -4 89 -10 132 -18 131 -6 -1 -47 -7
-91 -15z"/>
<path d="M5696 2818 c-8 -39 -32 -263 -42 -394 l-7 -92 54 -10 c30 -6 72 -13
94 -17 22 -3 68 -13 103 -22 38 -10 66 -13 72 -7 7 7 53 153 90 289 41 150 48
180 44 187 -12 19 -320 98 -381 98 -15 0 -23 -9 -27 -32z"/>
<path d="M4700 2749 c-121 -49 -301 -140 -306 -154 -4 -9 3 -39 14 -68 27 -67
143 -331 148 -336 2 -2 64 14 137 37 72 23 148 44 168 47 67 12 67 6 0 217
-86 266 -84 263 -112 265 -13 1 -35 -2 -49 -8z"/>
<path d="M6116 2658 c-89 -288 -114 -385 -100 -396 5 -5 56 -23 114 -41 58
-18 120 -39 138 -47 18 -8 38 -14 45 -13 11 0 207 386 207 407 0 6 -19 21 -42
34 -57 32 -306 138 -323 138 -8 0 -24 -32 -39 -82z"/>
<path d="M4305 2554 c-58 -30 -255 -158 -271 -175 -18 -20 -18 -21 75 -166 33
-51 70 -111 82 -133 13 -22 28 -40 35 -40 8 0 64 24 126 54 62 29 124 57 138
61 37 11 40 23 18 74 -12 25 -48 111 -82 191 -36 85 -67 146 -76 147 -8 2 -28
-4 -45 -13z"/>
<path d="M6547 2544 c-12 -13 -187 -373 -187 -387 0 -16 290 -157 307 -148 14
7 223 316 223 330 0 15 -66 63 -194 140 -115 69 -136 78 -149 65z"/>
<path d="M3880 2272 c-142 -111 -200 -164 -200 -181 0 -9 20 -37 43 -63 23
-25 68 -78 100 -117 33 -39 63 -71 68 -71 5 0 53 27 105 60 53 34 113 69 133
80 66 35 65 34 45 71 -9 19 -31 56 -49 84 -18 27 -52 82 -76 120 -44 71 -56
85 -74 84 -5 0 -48 -30 -95 -67z"/>
<path d="M6894 2282 c-16 -20 -41 -55 -54 -77 -14 -22 -51 -78 -83 -125 -68
-96 -67 -100 9 -140 27 -14 82 -47 121 -73 40 -27 77 -46 82 -43 13 8 151 152
192 201 67 78 69 66 -23 142 -79 65 -199 153 -208 153 -3 0 -19 -17 -36 -38z"/>
<path d="M3614 2048 c-56 -42 -224 -203 -224 -215 0 -17 209 -193 230 -193 10
0 26 8 36 18 15 15 106 84 182 137 17 12 20 20 13 33 -12 21 -192 236 -200
240 -4 1 -20 -8 -37 -20z"/>
<path d="M7120 1939 c-63 -67 -115 -128 -115 -135 0 -7 43 -43 95 -80 104 -74
101 -72 147 -110 22 -17 37 -23 47 -17 20 11 196 235 196 249 0 7 -39 48 -87
92 -108 99 -137 122 -155 122 -7 0 -65 -55 -128 -121z"/>
<path d="M7475 1769 c-22 -28 -66 -83 -97 -122 -32 -40 -58 -77 -58 -83 0 -7
26 -31 58 -55 31 -23 68 -54 82 -68 31 -33 96 -81 108 -81 10 0 145 100 200
147 l32 28 -41 45 c-110 118 -230 240 -237 240 -4 0 -25 -23 -47 -51z"/>
<path d="M3251 1703 c-50 -53 -91 -103 -91 -110 0 -16 158 -203 171 -203 16 0
247 204 248 218 1 15 -3 20 -84 87 -32 28 -72 62 -89 78 -16 15 -37 27 -47 27
-9 0 -58 -44 -108 -97z"/>
<path d="M3038 1478 c-42 -46 -98 -109 -124 -142 l-48 -58 35 -32 c20 -17 53
-44 74 -61 21 -16 44 -36 51 -42 28 -28 55 -12 164 98 60 61 110 115 110 118
0 21 -153 201 -171 201 -8 0 -49 -37 -91 -82z"/>
<path d="M7703 1419 c-57 -44 -103 -86 -103 -92 0 -7 49 -61 109 -121 l109
-109 96 82 c53 46 96 91 96 100 0 22 -168 215 -189 218 -9 1 -62 -34 -118 -78z"/>
<path d="M2749 1139 c-46 -56 -88 -108 -92 -116 -7 -11 11 -35 65 -91 40 -42
80 -78 89 -80 9 -2 40 25 74 65 32 37 80 91 107 119 29 30 46 56 43 65 -8 20
-168 139 -187 139 -9 0 -53 -45 -99 -101z"/>
<path d="M8000 1217 c-14 -12 -53 -46 -87 -76 -35 -30 -63 -58 -63 -63 0 -15
201 -228 214 -228 19 0 176 129 176 145 0 8 -7 23 -16 33 -8 9 -50 61 -91 115
-42 53 -84 97 -92 97 -9 0 -27 -10 -41 -23z"/>
<path d="M2608 965 c-7 -8 -29 -35 -48 -61 -19 -26 -58 -76 -87 -113 -53 -67
-80 -109 -72 -114 2 -1 39 -31 83 -66 62 -51 82 -62 95 -54 9 5 60 64 114 131
70 86 96 126 90 136 -13 22 -144 156 -153 156 -5 0 -15 -7 -22 -15z"/>
<path d="M8240 943 c-14 -9 -27 -19 -30 -22 -3 -4 -31 -26 -63 -50 -32 -24
-60 -48 -63 -53 -3 -5 7 -21 23 -36 15 -15 48 -52 73 -81 73 -87 68 -84 99
-64 77 51 141 99 145 111 3 8 0 19 -7 26 -6 7 -40 52 -75 100 -34 47 -66 86
-70 86 -4 0 -19 -8 -32 -17z"/>
<path d="M8367 662 c-43 -30 -81 -61 -84 -68 -7 -19 146 -204 169 -204 25 0
170 80 166 92 -7 19 -153 227 -163 231 -5 2 -45 -21 -88 -51z"/>
<path d="M2338 613 c-18 -26 -54 -77 -80 -112 -26 -35 -48 -70 -48 -76 0 -13
111 -100 157 -124 19 -10 24 -6 55 37 18 27 55 77 82 113 l48 64 -78 72 c-44
40 -84 73 -91 73 -7 0 -27 -21 -45 -47z"/>
</g>
</svg>
